<svg xmlns="http://www.w3.org/2000/svg" viewBox="0.01666666753590107 10.899999618530273 72.03333282470703 35.80000686645508" data-asc="0.85" width="72.03333282470703" height="35.80000686645508"><defs/><g fill="#000000"><g transform="translate(0, 0)"><path d="M2.60 43Q2.15 43 1.88 42.65Q1.60 42.30 1.55 41.95Q1.55 41.55 1.65 41.40Q1.95 40.45 2.10 39.10Q2.25 37.75 2.25 36.35Q2.25 35.50 2.20 34.75Q2.15 34 2.05 33.35Q1.95 32.30 1.60 31.05Q1.25 29.80 0.15 29.10Q0.05 29.10 0.02 28.95Q0 28.80 0.10 28.80Q0.30 28.80 0.40 28.90Q1.55 29.55 2.27 31Q3 32.45 3.35 34.17Q3.70 35.90 3.70 37.45Q3.70 37.90 3.68 38.30Q3.65 38.70 3.60 39.10Q4.20 37.75 4.98 36.20Q5.75 34.65 6.58 33.33Q7.40 32 8.10 31.45Q8.50 31.10 9 30.88Q9.50 30.65 10 30.65Q10.70 30.65 10.98 31.10Q11.25 31.55 11.25 32.25Q11.25 33 10.65 34.20Q10.05 35.40 9.33 36.65Q8.60 37.90 8.15 38.73Q7.70 39.55 8 39.55Q8.80 39.55 9.70 38.77Q10.60 38 11.48 36.98Q12.35 35.95 13 35.15Q13.25 34.85 13.65 34.55Q14.05 34.25 14.50 34.25Q14.90 34.25 14.90 34.65Q14.90 34.80 14.83 34.92Q14.75 35.05 14.70 35.15Q14.25 36.30 13.98 37.50Q13.70 38.70 13.70 39.85Q13.70 40.35 13.80 40.95Q13.90 41.55 14.55 41.55Q15.35 41.55 15.75 40.92Q16.15 40.30 16.35 40.30Q16.45 40.30 16.45 40.45Q16.45 40.85 15.98 41.25Q15.50 41.65 14.95 41.92Q14.40 42.20 14.05 42.20Q13 42.20 12.68 41.33Q12.35 40.45 12.35 39.65Q12.35 38.80 12.58 37.90Q12.80 37 13 36.20Q12.65 36.55 11.98 37.27Q11.30 38 10.53 38.75Q9.75 39.50 9.03 40.02Q8.30 40.55 7.75 40.55Q7.60 40.55 7.33 40.33Q7.05 40.10 7.05 39.90Q7 39.30 7.48 38.15Q7.95 37 8.47 35.88Q9 34.75 9.15 34.20Q9.20 34.05 9.35 33.52Q9.50 33 9.50 32.55Q9.50 31.95 9.10 31.95Q8.45 31.95 7.73 32.75Q7 33.55 6.33 34.75Q5.65 35.95 5.08 37.30Q4.50 38.65 4.08 39.75Q3.65 40.85 3.50 41.40Q3.50 41.45 3.48 41.48Q3.45 41.50 3.45 41.50L3.50 41.85Q3.35 42.20 3.30 42.48Q3.25 42.75 2.80 42.95Q2.75 42.95 2.73 42.98Q2.70 43 2.60 43ZM18.50 42.05Q17.85 42.05 17.52 41.50Q17.20 40.95 17.13 40.25Q17.05 39.55 17.10 39.15Q17.40 36.85 18.65 34.55Q19.90 32.25 21.77 30.45Q23.65 28.65 25.75 27.95Q26.15 27.80 26.48 27.75Q26.80 27.70 27.10 27.70Q28.65 27.70 28.65 28.90Q28.65 29.50 28.25 30.10L27.85 30.75Q27.80 30.90 27.70 30.90Q27.60 30.90 27.55 30.75Q27.50 30.60 27.60 30.45Q27.70 30.30 27.77 30.15Q27.85 30 27.95 29.85Q28.20 29.35 28.20 29.10Q28.20 28.75 27.93 28.63Q27.65 28.50 27.25 28.50Q27.05 28.50 26.82 28.52Q26.60 28.55 26.40 28.60Q25.35 28.95 24.57 29.50Q23.80 30.05 23.05 30.90Q22.15 31.85 21.10 33.38Q20.05 34.90 19.27 36.45Q18.50 38 18.35 39.20Q18.25 39.50 18.25 40.15Q18.25 40.60 18.38 41.08Q18.50 41.55 18.85 41.55Q19.30 41.55 19.70 41.10Q20.10 40.65 20.35 40.35Q21.20 39.15 22.25 37.35Q23.30 35.55 23.90 33.95L24 33.40Q24.10 33 24.40 32.50Q24.70 32 25.25 32Q25.70 32 25.70 32.50Q25.70 32.55 25.67 32.60Q25.65 32.65 25.65 32.70Q25.45 33.85 25.35 34.98Q25.25 36.10 25.25 37.25Q25.25 39.30 25.65 40.27Q26.05 41.25 26.65 41.25Q27.25 41.25 27.98 40.60Q28.70 39.95 29.38 39.13Q30.05 38.30 30.40 37.85L31.50 36.35Q31.65 36.15 31.75 36.15Q31.85 36.15 31.85 36.30Q31.85 36.55 31.75 36.70Q31.25 37.55 30.57 38.48Q29.90 39.40 29.05 40.40Q28.40 41.20 27.60 41.75Q26.80 42.30 26.10 42.30Q25.45 42.30 24.90 41.70Q24.35 41.10 24 39.65Q23.90 39.10 23.82 38.02Q23.75 36.95 23.80 35.80Q23.50 36.55 22.95 37.60Q22.40 38.65 21.68 39.67Q20.95 40.70 20.13 41.38Q19.30 42.05 18.50 42.05ZM47.30 46.50Q46.65 46.70 45.95 46.70Q44.35 46.70 43.13 45.63Q41.90 44.55 41 42.92Q40.10 41.30 39.55 39.65Q39 38 38.75 36.80Q37.60 39 36.20 40.45Q35.20 41.55 34.43 41.88Q33.65 42.20 33.10 42.05Q31.75 41.65 31.20 40.75Q30.70 39.90 30.70 38.60Q30.70 37.20 31.18 35.80Q31.65 34.40 32.15 33.60Q34.05 30.45 37.50 29.25Q37.30 27.60 37.23 25.95Q37.15 24.30 37.15 22.75Q37.15 20.80 37.28 19Q37.40 17.20 37.65 15.65Q38.10 13.15 38.90 12.02Q39.70 10.90 40.55 10.90Q41.55 10.90 42.40 12.30Q43.25 13.70 43.40 16.05Q43.45 16.50 43.45 16.92Q43.45 17.35 43.45 17.80Q43.45 19.95 43.10 22.07Q42.75 24.20 42.35 26.40Q42.30 27 42.13 27.63Q41.95 28.25 41.80 28.90Q42.10 28.90 42.38 28.95Q42.65 29 42.95 29.05Q43.30 29.20 43.30 29.45Q43.30 29.60 43.13 29.70Q42.95 29.80 42.65 29.75Q42.40 29.65 42.13 29.63Q41.85 29.60 41.60 29.60Q41.15 31.15 40.58 32.70Q40 34.25 39.35 35.75Q39.60 36.85 40.08 38.58Q40.55 40.30 41.35 42Q42.15 43.70 43.33 44.88Q44.50 46.05 46.15 46.05Q46.75 46.05 47.60 45.80L47.70 45.80Q47.90 45.80 47.90 46Q47.90 46.35 47.30 46.50M38.30 29.10Q38.85 28.95 39.48 28.85Q40.10 28.75 40.80 28.80Q41.50 26.20 41.83 23.60Q42.15 21 42.15 18.60Q42.15 17.90 42.15 17.20Q42.15 16.50 42.05 15.85Q41.90 14 41.43 13.02Q40.95 12.05 40.40 12.05Q39.20 12.05 38.60 15.40Q38.30 17.05 38.18 19.13Q38.05 21.20 38.05 23.40Q38.05 24.90 38.13 26.35Q38.20 27.80 38.30 29.10M39 34.20Q39.50 33.05 39.88 31.90Q40.25 30.75 40.60 29.60Q39.55 29.75 38.40 30.20Q38.50 31.20 38.65 32.20Q38.80 33.20 39 34.20M33.15 41.60Q33.75 41.80 35 40.65Q35.75 40 36.90 38.30Q37.30 37.60 37.70 36.88Q38.10 36.15 38.45 35.40Q38.25 34.20 38 33Q37.75 31.80 37.60 30.45Q35.40 31.55 33.85 33.75Q33.55 34.25 33.08 35.25Q32.60 36.25 32.23 37.40Q31.85 38.55 31.85 39.55Q31.85 40.10 32 40.55Q32.25 41.40 33.15 41.60ZM47.30 43Q46.95 43 46.73 42.58Q46.50 42.15 46.50 41.90Q46.50 41.65 46.70 41.42Q46.90 41.20 47.10 41.05Q47.35 40.85 47.75 40.63Q48.15 40.40 48.50 40.20Q48.70 40.05 48.70 40.25Q48.70 40.45 48.60 40.83Q48.50 41.20 48.45 41.65Q48.40 42.50 47.98 42.73Q47.55 42.95 47.30 43ZM54.80 28.95Q54.60 28.95 54.38 28.85Q54.15 28.75 54.15 28.45Q54.15 27.90 54.83 27.57Q55.50 27.25 55.95 27.25Q56.20 27.25 56.43 27.35Q56.65 27.45 56.65 27.70Q56.65 28.25 55.95 28.60Q55.25 28.95 54.80 28.95M57.80 40.20Q57.05 41.10 56.28 41.73Q55.50 42.35 54.80 42.35Q54.15 42.35 53.65 41.73Q53.15 41.10 52.80 39.65Q52.75 39.20 52.68 38.35Q52.60 37.50 52.60 36.60Q52.60 35.65 52.68 34.77Q52.75 33.90 52.80 33.40Q52.90 33 53.23 32.50Q53.55 32 54.05 32Q54.50 32 54.50 32.50Q54.50 32.55 54.48 32.60Q54.45 32.65 54.45 32.70Q54.25 33.85 54.15 34.98Q54.05 36.10 54.05 37.25Q54.05 39.25 54.38 40.15Q54.70 41.05 55.30 41.05Q55.75 41.05 56.35 40.63Q56.95 40.20 57.70 39.50Q58.35 38.90 58.95 38.15Q59.55 37.40 60.25 36.25Q60.35 36 60.55 36Q60.90 36 60.65 36.50Q60.15 37.30 59.40 38.25Q58.65 39.20 57.80 40.20ZM62.85 42.85Q62.65 42.85 61.98 42.80Q61.30 42.75 61.20 42.55Q61.20 42.55 61.10 42.40L61.00 42.20Q61.00 42.10 61.30 42.10Q61.80 42.10 62.23 42.08Q62.65 42.05 63.10 42.05Q63.55 42.05 64.20 41.88Q64.85 41.70 65.35 41.33Q65.85 40.95 65.85 40.40Q65.85 40.05 65.58 39.67Q65.30 39.30 65.05 39.10Q64.05 38.45 62.95 37.70Q61.85 36.95 61.10 35.92Q60.35 34.90 60.35 33.55Q60.35 32.20 61.23 30.82Q62.10 29.45 63.50 28.30Q64.90 27.15 66.43 26.43Q67.95 25.70 69.25 25.70Q70.10 25.70 71.08 26.18Q72.05 26.65 72.05 27.65Q72.05 27.95 71.83 28.52Q71.60 29.10 71.25 29.10Q71.10 29.10 71.08 28.95Q71.05 28.80 71.05 28.70Q71.05 28.40 71.10 28.13Q71.15 27.85 71.15 27.60Q71.15 26.70 70.25 26.70Q69.05 26.70 67.60 27.38Q66.15 28.05 64.80 29.15Q63.45 30.25 62.60 31.60Q61.75 32.95 61.75 34.30Q61.75 35.35 62.60 36.23Q63.45 37.10 64.58 37.88Q65.70 38.65 66.55 39.35Q67.40 40.05 67.40 40.80Q67.40 41.65 66.53 42.10Q65.65 42.55 64.58 42.70Q63.50 42.85 62.85 42.85Z"/></g></g></svg>