<svg xmlns="http://www.w3.org/2000/svg" viewBox="0 22.75 71.9000015258789 25.5" data-asc="0.89" width="71.9000015258789" height="25.5"><defs/><g fill="#000000"><g transform="translate(0, 0)"><path d="M0.35 46.15Q0 46.15 0 45.55Q0 45.05 0.23 44.35Q0.45 43.65 0.75 43.05Q1.20 42.20 2.10 40.05Q3.15 37.70 3.85 36.27Q4.55 34.85 5.20 34.10Q5.90 33.25 6.30 33.25Q6.55 33.25 6.70 33.58Q6.85 33.90 6.85 34.30Q6.85 34.70 6.75 34.80Q6.35 35.20 5.70 36.15Q5.05 37.10 4.50 38.05Q3.45 40 3.45 40.95Q3.45 41.05 3.48 41.15Q3.50 41.25 3.55 41.35Q4.15 41.05 4.65 40.75Q5.15 40.45 5.80 39.90L8.85 37.10Q9.35 36.65 9.75 36.35Q10.15 36.05 10.40 35.85Q10.90 35.50 11.35 35.50Q11.75 35.50 12.30 36Q12.55 36.25 12.55 37.35L12.55 38.60Q12.55 38.80 12.53 38.98Q12.50 39.15 12.50 39.35Q12.50 40 12.68 40.48Q12.85 40.95 13.20 40.95Q13.35 40.95 13.60 40.70L15 39.05Q16.75 37 17.70 36.05Q18.65 35.10 19.85 34.75Q20.00 34.70 20.13 34.67Q20.25 34.65 20.35 34.65Q20.80 34.65 21.13 34.95Q21.45 35.25 21.30 35.75Q21.10 36.55 20.78 37.58Q20.45 38.60 20.20 39.20Q19.60 40.40 19.60 41.10Q19.60 41.55 19.98 41.70Q20.35 41.85 20.73 41.90Q21.10 41.95 21.10 42.10Q22.10 41.75 22.60 41.75Q23.10 41.75 22.85 42.08Q22.60 42.40 21.95 42.85Q21.30 43.30 20.53 43.63Q19.75 43.95 19.15 43.95Q17.90 43.95 17.90 42.60Q17.90 41.90 18.10 41.30Q18.80 38.75 18.80 38Q18.80 37.25 18.40 37.25Q17.50 37.25 14.55 40.85Q14.25 41.20 13.88 41.60Q13.50 42 13.05 42.40Q12.45 42.95 11.90 43.55Q11.60 43.85 11.10 43.85Q10.05 43.85 9.95 43.10Q9.90 42.30 9.88 41.77Q9.85 41.25 9.85 41.05Q9.75 39.75 9.70 39.30Q9.65 38.85 9.25 38.85Q8.75 38.85 6.75 40.45Q4.05 42.60 1.80 45.25Q0.85 46.15 0.35 46.15ZM31.00 45.85Q30.90 45.85 30.80 45.83Q30.70 45.80 30.60 45.75Q29.90 45.40 29.70 44.75Q29.50 44.10 29.60 43.10Q29.70 42.70 29.83 41.70Q29.95 40.70 30.15 40.10L27.60 42.55L26.20 43.90Q24.75 45.35 23.80 45.35Q23.40 45.35 23.15 45.05Q22.70 44.50 22.70 43.70Q22.70 42.65 23.25 41.45Q23.80 40.25 24.55 39.13Q25.30 38 25.90 37.25Q27.40 35.40 28.83 34.35Q30.25 33.30 31.80 33.30Q32.65 33.30 33.48 33.60Q34.30 33.90 35 34.60L35.05 34.65Q35.05 34.80 34.80 34.95Q34.70 35.05 34.63 35.10Q34.55 35.15 34.50 35.20Q33.90 35.80 33.15 37.20Q32.40 38.60 31.85 40.13Q31.30 41.65 31.30 42.75Q31.30 43.75 31.80 44.10Q32.05 44.25 32.35 44.25Q33 44.25 34.15 43.45Q34.20 43.40 34.38 43.27Q34.55 43.15 34.90 42.90Q35.30 42.60 35.55 42.60Q35.80 42.60 35.80 42.80Q35.80 43.10 35.40 43.50Q35.10 43.75 34.73 44.05Q34.35 44.35 33.85 44.65Q33.10 45.20 32.30 45.52Q31.50 45.85 31.00 45.85M25.35 42.65Q26.40 42.65 29.25 39.55Q30.00 38.70 30.60 37.92Q31.20 37.15 31.70 36.40Q32.60 34.95 32.30 34.40Q32.15 34.10 31.70 34.10Q31.15 34.10 30.20 34.67Q29.25 35.25 28.28 36.15Q27.30 37.05 26.50 37.95Q25.95 38.65 25.40 39.90Q24.85 41.15 24.85 41.95Q24.85 42.65 25.35 42.65ZM46.10 48.25Q45.35 48.25 45.00 47.50Q44.95 47.45 44.95 47.20Q44.95 46.95 45.20 46.05Q45.30 45.80 45.38 45.55Q45.45 45.30 45.55 45.05Q45.65 44.80 45.75 44.48Q45.85 44.15 45.95 43.80Q46.15 43.05 46.15 42.55Q46.15 41.85 45.70 41.85Q45.55 41.85 45.15 42.10Q44.50 42.60 43.78 43.05Q43.05 43.50 42.25 43.90L40.65 44.75L39.60 45.35Q39.45 45.40 38.90 45.80Q38.40 46.10 37.85 46.10Q37.20 46.10 36.40 45.40Q35.80 44.80 35.80 44.15Q35.80 43.60 36.35 42.60Q36.75 41.95 37.70 41Q38.10 40.60 38.38 40.27Q38.65 39.95 38.85 39.75Q40.95 36.95 45.35 34.80Q46.60 34.15 47.60 34.15Q48.70 34.15 49.35 35.05Q49.65 34.45 50.33 33.33Q51.00 32.20 51.83 30.85Q52.65 29.50 53.43 28.30Q54.20 27.10 54.65 26.45Q56.00 24.60 56.85 23.65Q57.70 22.75 58.40 22.75Q58.65 22.75 59.05 23Q59.40 23.30 59.40 23.80Q59.40 24.55 58.75 25.55Q58.10 26.55 56.95 28Q56.85 28.15 56.65 28.38Q56.45 28.60 56.20 28.95Q55.65 29.75 55.05 30.63Q54.45 31.50 53.75 32.35Q52.75 33.65 51.65 35.17Q50.55 36.70 49.60 38.35Q48.75 39.85 48.15 41.42Q47.55 43 47.15 44.60Q47.10 44.95 47.08 45.17Q47.05 45.40 47.05 45.50L47.10 46.25Q47.15 46.40 47.15 46.95Q47.15 48.25 46.10 48.25M39.25 43.95Q39.80 43.95 40.25 43.75Q42.15 43.10 43.85 42.10Q45.55 41.10 47.45 39.40Q47.70 38.70 48.05 37.90Q48.40 37.10 48.80 36.15Q48.20 34.90 47.05 34.90Q46.30 34.90 45.45 35.40Q44.60 35.90 43.55 36.75Q42.55 37.55 41.53 38.55Q40.50 39.55 39.75 40.48Q39.00 41.40 38.70 42Q38.40 42.50 38.40 43.15Q38.40 43.95 39.25 43.95ZM52.25 44.80Q52.05 44.80 51.95 44.30Q51.85 43.80 51.85 43.75Q51.85 43.50 52.00 43.35Q53.65 42.50 54.05 42.35Q54.10 42.30 54.25 42.30Q54.50 42.30 54.35 42.95Q54.10 43.85 54.10 44.30Q54.10 44.45 53.80 44.55Q53.45 44.65 52.98 44.73Q52.50 44.80 52.25 44.80ZM61.60 33.55Q60.95 33.55 60.95 33.25Q60.95 33 61.33 32.52Q61.70 32.05 62.20 31.70Q63.30 31 63.93 30.50Q64.55 30 65.45 28.80Q65.50 28.90 65.50 29.20Q65.50 29.85 64.98 30.77Q64.45 31.70 63.80 32.45Q63.15 33.20 62.65 33.40Q62.20 33.55 61.60 33.55M57.15 45.80Q56.75 45.80 56.40 45.50Q56.05 45.20 56.05 44.70Q56.05 43.65 57.50 40.85L58.05 39.75Q58.15 39.65 58.33 39.25Q58.50 38.85 58.85 38.20Q59.20 37.50 59.40 36.95Q59.60 36.40 59.70 35.90Q59.70 35.85 59.90 35.70Q60.10 35.55 60.30 35.45L60.60 35.40Q61.00 35.40 61.28 35.55Q61.55 35.70 61.45 35.95Q61.10 36.70 60.85 37.25Q60.60 37.80 60.45 38.20L60.40 38.20Q59.85 39.45 59.48 40.58Q59.10 41.70 59.15 42.70L59.20 44.05Q59.15 44.55 58.85 44.90Q58.65 45.05 58.30 45.27Q57.95 45.50 57.40 45.75Q57.35 45.80 57.15 45.80ZM60.60 46.60Q59.80 46.60 59.20 46.45Q58.65 46.30 58.65 46.05Q58.65 45.65 59.45 45.60Q60.20 45.55 60.45 45.45Q60.90 45.35 61.50 45.30Q62.05 45.20 62.40 45.15Q64.80 44.45 64.80 43Q64.80 42 63.75 40.45Q63.10 39.50 63.10 38.35Q63.10 36.95 63.98 35.60Q64.85 34.25 66.18 33.23Q67.50 32.20 68.85 31.85Q69.45 31.70 70.10 31.70Q71.15 31.70 71.60 32.20Q71.90 32.50 71.90 33.50Q71.90 34.25 71.65 35.02Q71.40 35.80 70.95 36.30Q70.70 36.55 70.55 36.55Q70.30 36.55 70.30 35.85L70.35 34.85Q70.40 34.45 70.43 34.15Q70.45 33.85 70.45 33.65Q70.45 32.80 70.10 32.65Q69.70 32.55 69.55 32.55Q68.50 32.55 67.30 33.50Q66.10 34.45 65.35 35.70Q65.05 36.15 65.05 36.80Q65.05 37.60 65.48 38.67Q65.90 39.75 66.10 40.25Q66.60 41.35 66.88 42.15Q67.15 42.95 67.15 43.55Q67.15 43.85 67.10 44Q67.35 43.90 68.30 43.70Q69.15 43.50 69.75 43.50Q70.10 43.50 70.10 43.65Q70.10 43.70 69.80 44Q69.65 44.15 68.88 44.48Q68.10 44.80 67.08 45.15Q66.05 45.50 65.05 45.80Q64.05 46.10 63.35 46.25Q62.15 46.60 60.60 46.60Z"/></g></g></svg>